# AST/ASF file generated using VICON BodyLanguage
# -----------------------------------------------
:version 1.10
:name VICON
:units
  mass 1.0
  length 0.45
  angle deg
:documentation
   .ast/.asf automatically generated from VICON data using
   VICON BodyBuilder and BodyLanguage model FoxedUp or BRILLIANT.MOD
:root
   order TX TY TZ RX RY RZ
   axis XYZ
   position 0 0 0  
   orientation 0 0 0 
:bonedata
  begin
     id 1 
     name lhipjoint
     direction 0.662698 -0.695252 0.27831 
     length 2.53073 
     axis 0 0 0  XYZ
  end
  begin
     id 2 
     name lfemur
     direction 0.34202 -0.939693 0  
     length 7.16147  
     axis 0 0 20  XYZ
    dof rx ry rz
    limits (-160.0 20.0)
           (-70.0 70.0)
           (-60.0 70.0)
  end
  begin
     id 3 
     name ltibia
     direction 0.34202 -0.939693 0   
     length 7.63967   
     axis 0 0 20   XYZ
    dof rx
    limits (-10.0 170.0)
  end
  begin
     id 4 
     name lfoot
     direction 0.0938457 -0.257721 0.961651   
     length 1.89793   
     axis -90 7.62852e-016 20   XYZ
    dof rx rz
    limits (-45.0 90.0)
           (-70.0 20.0)
  end
  begin
     id 5 
     name ltoes
     direction -0.00116841 -0.0030592 0.999995   
     length 0.955649   
     axis -90 7.62852e-016 20   XYZ
    dof rx
    limits (-90.0 20.0)
  end
  begin
     id 6 
     name rhipjoint
     direction -0.649445 -0.705948 0.282592   
     length 2.49238  
     axis 0 0 0  XYZ 
  end
  begin
     id 7 
     name rfemur
     direction -0.34202 -0.939693 0   
     length 6.90728   
     axis 0 0 -20   XYZ
    dof rx ry rz
    limits (-160.0 20.0)
           (-70.0 70.0)
           (-70.0 60.0)
  end
  begin
     id 8 
     name rtibia
     direction -0.34202 -0.939693 0   
     length 7.72868   
     axis 0 0 -20   XYZ
    dof rx
    limits (-10.0 170.0)
 end
 begin
     id 9 
     name rfoot
     direction -0.0920068 -0.252865 0.963117   
     length 1.97476  
     axis -90 -7.62852e-016 -20   XYZ
    dof rx rz
    limits (-45.0 90.0)
           (-20.0 70.0)
  end
  begin
     id 10 
     name rtoes
     direction 0.000391322 0.00230649 0.999997   
     length 0.992641   
     axis -90 -7.62852e-016 -20   XYZ
    dof rx
    limits (-90.0 20.0)
  end
  begin
     id 11 
     name lowerback
     direction -0.00875327 0.998321 -0.0572635   
     length 2.20024   
     axis 0 0 0   XYZ
    dof rx ry rz
    limits (-20.0 45.0)
           (-30.0 30.0)
           (-30.0 30.0)
  end
  begin
     id 12 
     name upperback
     direction 0.00753931 0.999972 -0.000360425   
     length 2.20538   
     axis 0 0 0   XYZ
    dof rx ry rz
    limits (-20.0 45.0)
           (-30.0 30.0)
           (-30.0 30.0)
  end
  begin
     id 13 
     name thorax
     direction 0.0117767 0.999601 0.0256663   
     length 2.21508   
     axis 0 0 0   XYZ
    dof rx ry rz
    limits (-20.0 45.0)
           (-30.0 30.0)
           (-30.0 30.0)
  end
  begin
     id 14 
     name lowerneck
     direction 0.060228 0.994909 0.0807986   
     length 1.7607   
     axis 0 0 0   XYZ
    dof rx ry rz
    limits (-20.0 45.0)
           (-30.0 30.0)
           (-30.0 30.0)
  end
  begin
     id 15 
     name upperneck
     direction -0.0563647 0.959594 -0.275685   
     length 1.75612   
     axis 0 0 0   XYZ
    dof rx ry rz
    limits (-20.0 45.0)
           (-30.0 30.0)
           (-30.0 30.0)
  end
  begin
     id 16
     name head
     direction -0.0161544 0.99458 -0.102714  
     length 1.79288  
     axis 0 0 0   XYZ
    dof rx ry rz
    limits (-20.0 45.0)
           (-30.0 30.0)
           (-30.0 30.0)
  end
  begin
     id 17 
     name lclavicle
     direction 0.93913 0.332189 -0.087669  
     length 3.52087  
     axis 0 0 0   XYZ
    dof ry rz
    limits (-20.0 10.0)
           (0.0 20.0)
  end
  begin
     id 18 
     name lhumerus
     direction 1 -4.48974e-011 -2.70836e-027   
     length 5.35289   
     axis -180 -30 -90   XYZ
    dof rx ry rz
    limits (-60.0 90.0)
           (-90.0 90.0)
           (-90.0 90.0)
  end
  begin
     id 19
     name lradius
     direction 1 -4.48961e-011 -9.76021e-027   
     length 3.27727   
     axis -180 -30 -90   XYZ
    dof rx
    limits (-10.0 170.0)
  end
  begin
     id 20
     name lwrist
     direction 1 -4.49103e-011 -2.23668e-026   
     length 1.63864   
     axis 1.44924e-014 90 90   XYZ
    dof ry
    limits (-180.0 0.0)
 end
  begin
     id 21 
     name lhand
     direction 1 3.0697e-005 0.000161777   
     length 0.54443   
     axis 2.85318e-014 90 90   XYZ
    dof rx rz
    limits (-90.0 90.0)
           (-45.0 45.0)
  end
  begin
     id 22 
     name lfingers
     direction 1 -4.49027e-011 -8.9447e-026   
     length 0.438912   
     axis 5.70628e-014 90 90   XYZ
    dof rx
    limits (0.0 90.0)
  end
  begin
     id 23
     name lthumb
     direction 0.707058 2.6516e-005 0.707156   
     length 0.630274   
     axis -90 45 -3.53137e-014   XYZ
    dof rx rz
    limits (-45.0 45.0)
           (-45.0 45.0)
  end
  begin
     id 24 
     name rclavicle
     direction -0.95274 0.284984 -0.105215   
     length 3.43401  
     axis 0 0 0   XYZ 
    dof ry rz
    limits (-10.0 20.0)
           (-20.0 0.0)
  end
  begin
     id 25 
     name rhumerus
     direction -0.999999 -0.000575019 -0.00106829  
     length 5.52077   
     axis -180 30 90   XYZ
    dof rx ry rz
    limits (-90.0 60.0)
           (-90.0 90.0)
           (-90.0 90.0)
  end
  begin
     id 26 
     name rradius
     direction -1 -4.4879e-011 -6.35415e-027   
     length 3.32364   
     axis -180 30 90   XYZ
    dof rx
    limits (-10.0 170.0)
  end
  begin
     id 27 
     name rwrist
     direction -1 -4.49048e-011 -9.98542e-027   
     length 1.66182   
     axis 6.32482e-015 -90 -90   XYZ
    dof ry
    limits (-180.0 0.0)
  end
  begin
     id 28
     name rhand
     direction -1 -4.48978e-011 -1.99771e-026   
     length 0.732235   
     axis 1.27479e-014 -90 -90   XYZ
    dof rx rz
    limits (-90.0 90.0)
           (-45.0 45.0)
  end
  begin
     id 29
     name rfingers
     direction -1 -4.49144e-011 -3.99245e-026   
     length 0.590347   
     axis 2.5496e-014 -90 -90   XYZ
    dof rx
    limits (0.0 90.0)
  end
  begin
     id 30
     name rthumb
     direction -0.707107 -6.35121e-011 0.707107   
     length 0.847624   
     axis -90 -45 -2.82974e-014   XYZ
    dof rx rz
    limits (-45.0 45.0)
           (-45.0 45.0)
  end
:hierarchy
  begin
    root lhipjoint rhipjoint lowerback
    lhipjoint lfemur
    lfemur ltibia
    ltibia lfoot
    lfoot ltoes
    rhipjoint rfemur
    rfemur rtibia
    rtibia rfoot
    rfoot rtoes
    lowerback upperback
    upperback thorax
    thorax lowerneck lclavicle rclavicle
    lowerneck upperneck
    upperneck head
    lclavicle lhumerus
    lhumerus lradius
    lradius lwrist
    lwrist lhand lthumb
    lhand lfingers
    rclavicle rhumerus
    rhumerus rradius
    rradius rwrist
    rwrist rhand rthumb
    rhand rfingers
  end

#!OML:ASF G:\Work\Work\Patient Classification 1\Elijah\terrain1\Elijah.ASF
:FULLY-SPECIFIED
:DEGREES
886
root 13.1356 22.816 -9.34444 183.648 28.3989 175.801
lowerback 5.23851 -0.0982187 -6.5014
upperback 1.32851 -0.408754 -1.07192
thorax -1.52379 -0.149972 2.56534
lowerneck -4.66995 12.4981 10.3655
upperneck 31.9393 25.3575 -10.5246
head 14.5738 12.3835 -1.727
rclavicle 2.88238e-015 -1.5704e-014
rhumerus -38.8912 1.37508 -85.7614
rradius 37.9027
rwrist -9.14787
rhand -15.2651 21.0464
rfingers 7.12502
rthumb 10.9091 -8.65023
lclavicle 2.88238e-015 -1.5704e-014
lhumerus -35.2053 3.84292 79.4654
lradius 45.9544
lwrist 4.12593
lhand -16.0376 25.1503
lfingers 7.12502
lthumb 10.1639 54.8848
rfemur -41.8127 0.576655 17.9368
rtibia 53.0203
rfoot -15.1951 -6.96813
rtoes -22.6719
lfemur -11.4153 -7.05331 -30.5681
ltibia 36.0298
lfoot -22.4289 -5.29345
ltoes -3.17756
887
root 13.1893 22.8136 -9.41001 184.376 28.7982 176.971
lowerback 5.39537 0.0768507 -5.84051
upperback 1.02805 -0.183212 -0.643161
thorax -1.94618 -0.0333399 2.62546
lowerneck -4.21564 12.442 10.3512
upperneck 31.9719 25.498 -10.6679
head 14.5398 12.4846 -1.78969
rclavicle 4.7758e-014 -6.16232e-015
rhumerus -39.9257 2.55526 -86.2333
rradius 39.092
rwrist -10.2663
rhand -15.8571 19.592
rfingers 7.12502
rthumb 10.338 -10.1339
lclavicle 4.7758e-014 -6.16232e-015
lhumerus -35.7229 3.99634 79.3942
lradius 45.8873
lwrist 4.31599
lhand -16.0614 24.7721
lfingers 7.12502
lthumb 10.1409 54.5077
rfemur -41.4643 2.60745 18.6317
rtibia 49.8983
rfoot -15.2182 -6.29394
rtoes -21.6654
lfemur -11.3866 -6.67702 -29.3484
ltibia 35.9451
lfoot -22.3794 -5.42008
ltoes -2.3804
888
root 13.2174 22.8204 -9.50483 183.595 27.4271 175.138
lowerback 4.92057 -0.32002 -6.98929
upperback 1.47161 -0.686181 -1.11239
thorax -1.16514 -0.297803 2.80936
lowerneck -4.46657 12.5525 10.431
upperneck 31.613 25.5825 -10.9993
head 14.5144 12.4636 -1.88982
rclavicle 2.28602e-015 -3.97569e-016
rhumerus -38.8012 1.90647 -86.1605
rradius 37.995
rwrist -9.99329
rhand -15.9595 20.2508
rfingers 7.12502
rthumb 10.2393 -9.48003
lclavicle 2.28602e-015 -3.97569e-016
lhumerus -35.1137 4.10058 79.3784
lradius 45.8113
lwrist 4.65373
lhand -16.2709 24.6726
lfingers 7.12502
lthumb 9.93878 54.418
rfemur -40.854 1.21675 16.5345
rtibia 47.3807
rfoot -15.1992 -4.94645
rtoes -22.2504
lfemur -10.6098 -7.60849 -31.2432
ltibia 35.4913
lfoot -22.2241 -5.79085
ltoes -2.03271
889
root 13.279 22.8304 -9.60349 183.59 27.1325 175.333
lowerback 5.09193 -0.275467 -6.93225
upperback 1.23672 -0.661854 -0.89714
thorax -1.50573 -0.275853 3.00193
lowerneck -3.78196 12.4172 10.6041
upperneck 31.6008 25.6945 -11.3009
head 14.4672 12.5882 -2.0621
rclavicle -2.11954e-014 9.44227e-015
rhumerus -39.3399 1.85077 -85.9524
rradius 37.69
rwrist -9.95453
rhand -15.6149 20.9784
rfingers 7.12502
rthumb 10.5717 -8.73575
lclavicle -2.11954e-014 9.44227e-015
lhumerus -35.8525 3.91427 79.5693
lradius 45.8499
lwrist 5.19149
lhand -16.555 24.731
lfingers 7.12502
lthumb 9.66476 54.4893
rfemur -40.1436 2.18829 16.3916
rtibia 44.8698
rfoot -15.0355 -5.06542
rtoes -23.8695
lfemur -9.9934 -7.66464 -31.0281
ltibia 35.2978
lfoot -22.3619 -5.84781
ltoes -2.59063
890
root 13.3269 22.8306 -9.68945 183.724 27.1727 175.827
lowerback 4.41876 -0.0499043 -6.1586
upperback 1.83911 -0.231563 -0.951132
thorax -0.555256 -0.0972522 2.4837
lowerneck -4.33047 12.4204 10.757
upperneck 31.449 25.5556 -11.4531
head 14.5426 12.4698 -2.1178
rclavicle 1.62258e-014 7.15625e-015
rhumerus -38.6719 1.20589 -85.9707
rradius 37.6001
rwrist -9.95452
rhand -15.4923 21.415
rfingers 7.12502
rthumb 10.69 -8.29308
lclavicle 1.62258e-014 7.15625e-015
lhumerus -34.8522 3.3069 79.6088
lradius 45.5257
lwrist 5.55863
lhand -16.4851 25.0147
lfingers 7.12502
lthumb 9.73212 54.7698
rfemur -39.622 3.29486 16.5167
rtibia 42.8197
rfoot -15.0146 -4.74974
rtoes -24.0159
lfemur -9.34022 -7.27336 -30.5932
ltibia 34.9247
lfoot -22.2469 -6.0074
ltoes -2.24829
891
root 13.3717 22.8228 -9.75927 183.969 27.0886 176.176
lowerback 3.79865 0.116751 -5.55235
upperback 2.35741 0.09356 -1.01524
thorax 0.296649 0.043348 2.06443
lowerneck -4.89439 12.4508 10.9088
upperneck 31.2591 25.4464 -11.6374
head 14.6149 12.3581 -2.17959
rclavicle -4.19436e-014 1.39149e-015
rhumerus -37.9213 0.671235 -86.0971
rradius 37.4875
rwrist -9.89449
rhand -15.5075 21.5165
rfingers 7.12502
rthumb 10.6752 -8.19229
lclavicle -4.19436e-014 1.39149e-015
lhumerus -33.9171 3.04075 79.5467
lradius 45.2596
lwrist 5.5064
lhand -16.2674 25.2574
lfingers 7.12502
lthumb 9.94217 55.0026
rfemur -39.287 4.45033 16.4786
rtibia 40.8859
rfoot -14.7712 -4.17581
rtoes -23.3369
lfemur -9.13927 -7.08425 -30.2286
ltibia 34.9162
lfoot -22.1729 -6.13883
ltoes -0.597876
892
root 13.4114 22.8101 -9.8352 183.892 26.5064 176.017
lowerback 4.54885 0.0786455 -5.58673
upperback 1.8127 -0.0516333 -0.911526
thorax -0.673891 -0.00373854 2.19633
lowerneck -3.98397 12.2161 10.8958
upperneck 31.3548 25.4646 -11.7595
head 14.4908 12.4717 -2.30017
rclavicle 3.38182e-014 1.11319e-014
rhumerus -39.0262 1.24106 -86.205
rradius 37.8812
rwrist -10.2658
rhand -15.4366 21.2877
rfingers 7.12502
rthumb 10.7437 -8.41756
lclavicle 3.38182e-014 1.11319e-014
lhumerus -35.0284 3.04591 79.6471
lradius 45.2855
lwrist 5.55566
lhand -16.5389 24.8484
lfingers 7.12502
lthumb 9.68024 54.606
rfemur -38.8719 4.71777 16.0516
rtibia 39.4868
rfoot -14.5044 -3.40705
rtoes -23.5879
lfemur -8.62464 -7.25165 -30.4368
ltibia 34.7032
lfoot -22.2266 -6.00012
ltoes 0.151744
893
root 13.4725 22.7995 -9.91826 183.828 26.476 176.26
lowerback 4.52259 0.17261 -5.56721
upperback 1.99488 0.0857024 -0.67229
thorax -0.482264 0.0559137 2.42527
lowerneck -3.94564 12.217 10.6198
upperneck 31.2843 25.6011 -11.9201
head 14.4614 12.5011 -2.29897
rclavicle 4.09869e-014 -1.25234e-014
rhumerus -37.2958 -0.742648 -85.3284
rradius 34.7267
rwrist -8.08381
rhand -15.4047 23.1635
rfingers 7.12502
rthumb 10.7744 -6.54013
lclavicle 4.09869e-014 -1.25234e-014
lhumerus -35.0446 3.29153 79.795
lradius 45.219
lwrist 5.70291
lhand -17.0221 24.4399
lfingers 7.12502
lthumb 9.21402 54.2186
rfemur -38.4324 6.01355 15.997
rtibia 38.4251
rfoot -14.2708 -3.40566
rtoes -24.8326
lfemur -7.98553 -6.96213 -30.203
ltibia 34.4874
lfoot -22.3223 -5.70545
ltoes -0.688839
894
root 13.5034 22.7944 -10.0217 183.247 25.3857 175.344
lowerback 4.65008 -0.175191 -6.04286
upperback 2.10497 -0.388747 -0.78358
thorax -0.395348 -0.181699 2.59965
lowerneck -3.79138 12.2406 10.6259
upperneck 31.2929 25.888 -12.2359
head 14.5436 12.6219 -2.36819
rclavicle -1.55487e-014 9.44227e-015
rhumerus -38.7518 2.18101 -86.3693
rradius 37.7061
rwrist -10.5546
rhand -16.0066 21.1182
rfingers 7.12502
rthumb 10.1938 -8.6148
lclavicle -1.55487e-014 9.44227e-015
lhumerus -35.3484 3.61365 79.8256
lradius 45.3559
lwrist 5.68317
lhand -16.9904 24.933
lfingers 7.12502
lthumb 9.24462 54.7104
rfemur -37.8123 5.29607 14.9087
rtibia 37.8636
rfoot -14.5819 -2.50617
rtoes -25.0382
lfemur -6.99594 -7.39455 -31.2236
ltibia 34.0593
lfoot -22.0538 -5.86484
ltoes -1.95835
895
root 13.5452 22.7825 -10.1172 183.042 25.154 175.132
lowerback 4.72807 -0.17665 -6.06607
upperback 2.07334 -0.400286 -0.726978
thorax -0.46992 -0.185929 2.67221
lowerneck -3.50553 12.1459 10.6406
upperneck 31.4401 26.0782 -12.4893
head 14.6376 12.7306 -2.44494
rclavicle -2.12482e-014 -4.5472e-015
rhumerus -38.5911 2.26385 -86.3294
rradius 37.2159
rwrist -10.3365
rhand -15.9463 20.7359
rfingers 7.12502
rthumb 10.252 -8.99431
lclavicle -2.12482e-014 -4.5472e-015
lhumerus -35.8099 3.82422 79.8394
lradius 45.4972
lwrist 5.58595
lhand -16.6038 25.5605
lfingers 7.12502
lthumb 9.61761 55.3209
rfemur -37.5083 5.67332 14.557
rtibia 37.5698
rfoot -14.7865 -1.90884
rtoes -23.925
lfemur -6.24355 -7.33079 -31.5001
ltibia 33.6678
lfoot -21.7662 -5.86128
ltoes -2.84365
